<?xml version="1.0" encoding="UTF-8"?>
<svg id="Calque_1" data-name="Calque 1" xmlns="http://www.w3.org/2000/svg" viewBox="0 0 50 50">
  <defs>
    <style>
      .cls-1 {
        fill: #ededed;
      }

      .cls-2 {
        fill: #1d1d1b;
      }
    </style>
  </defs>
  <circle class="cls-1" cx="25" cy="25" r="25"/>
  <g>
    <circle class="cls-1" cx="15.97" cy="14.27" r="2.87"/>
    <path class="cls-2" d="m15.97,17.64c-1.86,0-3.37-1.51-3.37-3.37s1.51-3.37,3.37-3.37,3.37,1.51,3.37,3.37-1.51,3.37-3.37,3.37Zm0-5.74c-1.31,0-2.37,1.06-2.37,2.37s1.06,2.37,2.37,2.37,2.37-1.06,2.37-2.37-1.06-2.37-2.37-2.37Z"/>
  </g>
  <g>
    <rect class="cls-1" x="13.53" y="19.46" width="4.89" height="15.96"/>
    <path class="cls-2" d="m18.92,35.92h-5.89v-16.96h5.89v16.96Zm-4.89-1h3.89v-14.96h-3.89v14.96Z"/>
  </g>
  <g>
    <path class="cls-1" d="m26.19,26.83c-.14-2.55,1.63-3.22,1.63-3.22,0,0,1.44-.5,2.8.12,1.36.62,1.23,3.3,1.23,3.3v8.38h5.04s-.03-8.85-.1-10.89c-.08-2.04-1.1-3.48-1.1-3.48-2.04-2.33-3.86-2.24-5.99-1.93-2.38.34-3.52,2.43-3.52,2.43v-2.09h-4.89v15.96h4.89v-8.59Z"/>
    <path class="cls-2" d="m37.4,35.92h-6.05v-8.88c.03-.63-.08-2.46-.94-2.85-1.15-.53-2.42-.11-2.43-.1-.04.02-1.42.58-1.3,2.71v.03s0,9.09,0,9.09h-5.89v-16.96h5.89v1.16c.64-.63,1.61-1.3,2.95-1.49,2.23-.32,4.26-.38,6.43,2.1.08.1,1.14,1.62,1.22,3.79.08,2.02.1,10.55.1,10.91v.5Zm-5.04-1h4.04c0-1.9-.04-8.65-.1-10.37-.07-1.85-1-3.19-1.01-3.21-1.82-2.07-3.43-2.02-5.51-1.73-2.09.3-3.14,2.16-3.15,2.18l-.94,1.7v-3.53h-3.89v14.96h3.89v-8.08c-.15-2.88,1.87-3.67,1.96-3.7.08-.03,1.66-.56,3.18.14,1.62.74,1.54,3.47,1.52,3.78v7.86Z"/>
  </g>
</svg>