<?xml version="1.0" encoding="UTF-8"?>
<svg id="Calque_1" data-name="Calque 1" xmlns="http://www.w3.org/2000/svg" viewBox="0 0 50 50">
  <defs>
    <style>
      .cls-1 {
        fill: #ededed;
      }

      .cls-2 {
        fill: #1d1d1b;
      }
    </style>
  </defs>
  <circle class="cls-1" cx="25" cy="25" r="25"/>
  <g>
    <rect class="cls-1" x="10.43" y="10.43" width="29.14" height="29.14" rx="5.13" ry="5.13"/>
    <path class="cls-2" d="m34.44,40.07H15.56c-3.1,0-5.63-2.52-5.63-5.62V15.56c0-3.1,2.52-5.63,5.63-5.63h18.89c3.1,0,5.63,2.52,5.63,5.63v18.89c0,3.1-2.52,5.62-5.63,5.62ZM15.56,10.93c-2.55,0-4.63,2.08-4.63,4.63v18.89c0,2.55,2.08,4.62,4.63,4.62h18.89c2.55,0,4.63-2.08,4.63-4.62V15.56c0-2.55-2.08-4.63-4.63-4.63H15.56Z"/>
  </g>
  <g>
    <circle class="cls-1" cx="25" cy="25" r="8.23"/>
    <path class="cls-2" d="m25,33.73c-4.81,0-8.73-3.92-8.73-8.73s3.92-8.73,8.73-8.73,8.73,3.92,8.73,8.73-3.92,8.73-8.73,8.73Zm0-16.46c-4.26,0-7.73,3.47-7.73,7.73s3.47,7.73,7.73,7.73,7.73-3.47,7.73-7.73-3.47-7.73-7.73-7.73Z"/>
  </g>
  <g>
    <circle class="cls-1" cx="34.3" cy="15.92" r="2.4"/>
    <path class="cls-2" d="m34.3,18.82c-1.6,0-2.9-1.3-2.9-2.9s1.3-2.9,2.9-2.9,2.9,1.3,2.9,2.9-1.3,2.9-2.9,2.9Zm0-4.8c-1.05,0-1.9.85-1.9,1.9s.85,1.9,1.9,1.9,1.9-.85,1.9-1.9-.85-1.9-1.9-1.9Z"/>
  </g>
</svg>